<?xml version="1.0" standalone="no"?>
<!DOCTYPE svg PUBLIC "-//W3C//DTD SVG 20010904//EN"
 "http://www.w3.org/TR/2001/REC-SVG-20010904/DTD/svg10.dtd">
<svg version="1.0" xmlns="http://www.w3.org/2000/svg"
 width="889.000000pt" height="1280.000000pt" viewBox="0 0 889.000000 1280.000000"
 preserveAspectRatio="xMidYMid meet">
<metadata>
Created by potrace 1.15, written by Peter Selinger 2001-2017
</metadata>
<g transform="translate(0.000000,1280.000000) scale(0.100000,-0.100000)"
fill="#000000" stroke="none">
<path d="M3331 12643 c-197 -1412 -532 -2569 -1027 -3553 -266 -530 -502 -899
-1069 -1680 -465 -640 -613 -867 -790 -1215 -278 -546 -422 -1123 -442 -1765
-33 -1125 439 -2232 1362 -3189 444 -460 1005 -885 1482 -1125 228 -114 238
-116 537 -116 141 0 256 2 256 5 0 3 -89 112 -197 242 -226 274 -349 436 -490
648 -516 776 -770 1493 -723 2040 27 311 87 540 210 790 99 204 194 346 611
915 315 429 473 660 651 950 372 607 703 1320 944 2037 l47 142 111 -101 c200
-182 535 -508 679 -662 495 -527 783 -973 992 -1531 124 -332 238 -796 266
-1081 15 -155 6 -624 -16 -799 -116 -946 -432 -2033 -950 -3270 -64 -154 -121
-290 -126 -302 l-9 -23 153 0 153 0 235 183 c385 299 566 456 838 722 936 918
1513 1920 1755 3046 81 378 111 679 110 1109 -1 435 -27 704 -110 1120 -313
1576 -1264 3164 -2805 4685 -644 635 -1304 1186 -2136 1783 l-211 152 -134 0
-135 0 -22 -157z"/>
</g>
</svg>
